<svg xmlns="http://www.w3.org/2000/svg" viewBox="0 0 512 512" role="img" aria-labelledby="title desc">
  <title id="title">German Vocab Coach Logo</title>
  <desc id="desc">A friendly robot reading a book in the German flag colors.</desc>
  <rect width="512" height="512" rx="108" fill="#e7f5f7"/>
  <ellipse cx="256" cy="426" rx="170" ry="30" fill="#171717" opacity=".18"/>
  <path d="M167 235c-13 0-24-13-24-29v-36c0-16 11-29 24-29h16v94h-16Z" fill="#f8f8f8" stroke="#111" stroke-width="12"/>
  <path d="M345 235c13 0 24-13 24-29v-36c0-16-11-29-24-29h-16v94h16Z" fill="#f8f8f8" stroke="#111" stroke-width="12"/>
  <path d="M168 151c4-67 45-105 88-105s84 38 88 105" fill="none" stroke="#111" stroke-width="14" stroke-linecap="round"/>
  <path d="M190 151c5-47 34-72 66-72s61 25 66 72" fill="none" stroke="#111" stroke-width="10" stroke-linecap="round"/>
  <path d="M345 74v65" fill="none" stroke="#111" stroke-width="10" stroke-linecap="round"/>
  <circle cx="345" cy="67" r="17" fill="#111"/>
  <circle cx="351" cy="61" r="7" fill="#fff" opacity=".8"/>
  <path d="M175 137c0-50 32-84 81-84s81 34 81 84v79c0 49-32 84-81 84s-81-35-81-84v-79Z" fill="#f7f7f5" stroke="#111" stroke-width="12"/>
  <path d="M183 141c0-43 29-72 73-72v219c-44 0-73-30-73-73v-74Z" fill="#ffffff"/>
  <path d="M188 148c0-30 20-50 50-50h61c15 0 26 11 26 26v76c0 29-22 53-51 53h-60c-15 0-26-11-26-26v-79Z" fill="#111"/>
  <path d="M205 123c13-12 31-18 54-18h51c-31 18-62 40-91 66l-20 18v-41c0-10 2-18 6-25Z" fill="#ffffff" opacity=".86"/>
  <path d="M255 300l-72 41-92-53v-118l164 94v36Z" fill="#0b0b0b" stroke="#111" stroke-width="10" stroke-linejoin="round"/>
  <path d="M257 300l72 41 92-53v-118l-164 94v36Z" fill="#0b0b0b" stroke="#111" stroke-width="10" stroke-linejoin="round"/>
  <path d="M91 213l164 94v61L91 274v-61Z" fill="#dd0000" stroke="#111" stroke-width="8" stroke-linejoin="round"/>
  <path d="M421 213l-164 94v61l164-94v-61Z" fill="#dd0000" stroke="#111" stroke-width="8" stroke-linejoin="round"/>
  <path d="M91 274l164 94v61L91 335v-61Z" fill="#ffce00" stroke="#111" stroke-width="8" stroke-linejoin="round"/>
  <path d="M421 274l-164 94v61l164-94v-61Z" fill="#ffce00" stroke="#111" stroke-width="8" stroke-linejoin="round"/>
  <path d="M139 248c-24 2-38 18-38 41 0 22 15 40 38 42 20 2 37-13 37-34v-16c0-21-17-35-37-33Z" fill="#fff" stroke="#111" stroke-width="10"/>
  <path d="M373 248c24 2 38 18 38 41 0 22-15 40-38 42-20 2-37-13-37-34v-16c0-21 17-35 37-33Z" fill="#fff" stroke="#111" stroke-width="10"/>
  <path d="M202 404c-7 22-28 38-54 38-10 0-18-8-18-18 0-34 30-66 71-74l31 16-30 38Z" fill="#fff" stroke="#111" stroke-width="10"/>
  <path d="M310 404c7 22 28 38 54 38 10 0 18-8 18-18 0-34-30-66-71-74l-31 16 30 38Z" fill="#fff" stroke="#111" stroke-width="10"/>
</svg>
